/* XPM */
static const char * geometry_xpm[] = {
"16 16 16 1",
" 	c None",
".	c #45A2E9",
"+	c #ACDAA7",
"@	c #55B34B",
"#	c #D2EEB1",
"$	c #8AD26C",
"%	c #0A5EC5",
"&	c #72C757",
"*	c #ECF8D6",
"=	c #F1F9E7",
"-	c #D2EDC3",
";	c #C9ECFA",
">	c #97BBE6",
",	c #106CD2",
"'	c #209910",
")	c #FFFFFF",
"                ",
"      ))))      ",
"    ))'',,))    ",
"   )''*==;,')   ",
"  )'=**#..>#')  ",
"  ),=##@.$&#')  ",
" ),;-#$..@$&+') ",
" ),;.+...$&@+') ",
" ),;>....@@@+') ",
" )'-$&...,,'+,) ",
"  )'-$@@,%%>,)  ",
"  )'+#@',%>>,)  ",
"   )''++>>,,)   ",
"    ))',,,))    ",
"      ))))      ",
"                "};
